<svg xmlns="http://www.w3.org/2000/svg"  viewBox="0 0 64 64" width="64px" height="64px"><linearGradient id="b1YazYl6byVT2Be_hu8dNa" x1="22.625" x2="22.625" y1="6.03" y2="43" gradientUnits="userSpaceOnUse" spreadMethod="reflect"><stop offset="0" stop-color="#6dc7ff"/><stop offset="1" stop-color="#e6abff"/></linearGradient><path fill="url(#b1YazYl6byVT2Be_hu8dNa)" d="M21.285,43l7.09-19h-4.14l-7.09,19h-5.52L20,20.64l4.98-13.67c1.87-0.54,3.83-0.85,5.85-0.94 L25.822,20h4.22c2.76,0,4.24,2.12,3.3,4.71L26.375,43H21.285z"/><linearGradient id="b1YazYl6byVT2Be_hu8dNb" x1="39.529" x2="39.529" y1="20" y2="57.98" gradientUnits="userSpaceOnUse" spreadMethod="reflect"><stop offset="0" stop-color="#6dc7ff"/><stop offset="1" stop-color="#e6abff"/></linearGradient><path fill="url(#b1YazYl6byVT2Be_hu8dNb)" d="M49.515,20h-10.14L30.79,44.03l-4.83,13.26c1.59,0.38,3.25,0.62,4.94,0.69L36.3,43h7.32 c1.28,0,2.69-0.99,3.13-2.19l6.065-16.1C53.755,22.12,52.275,20,49.515,20z M42.14,39H38l5.725-15h4.15L42.14,39z"/><path fill="#1976d2" d="M30.9,57.98L30.89,58H32C31.63,58,31.27,57.99,30.9,57.98z"/><linearGradient id="b1YazYl6byVT2Be_hu8dNc" x1="32" x2="32" y1="6" y2="58" gradientUnits="userSpaceOnUse" spreadMethod="reflect"><stop offset="0" stop-color="#1a6dff"/><stop offset="1" stop-color="#c822ff"/></linearGradient><path fill="none" stroke="url(#b1YazYl6byVT2Be_hu8dNc)" stroke-miterlimit="10" stroke-width="2" d="M32 7A25 25 0 1 0 32 57A25 25 0 1 0 32 7Z"/></svg>